<svg xmlns="http://www.w3.org/2000/svg" width="695.27" height="670.976" viewBox="0 0 695.27 670.976">
  <g id="Group_228" data-name="Group 228" transform="translate(-600.058 -2261.236)">
    <path id="Path_100" data-name="Path 100" d="M723.3,10546.125,608.678,10612.3v132.351l114.618,66.174,114.618-66.174V10612.3Z" transform="translate(-4.62 -8280.13)" fill="#fff" stroke="#31b8ff" stroke-width="8"/>
    <text id="fabricatr" transform="translate(603.997 2380.365)" font-size="28" font-family="Roboto-Bold, Roboto" font-weight="700"><tspan x="60.729" y="27">fabricatr</tspan></text>
    <path id="Path_100-2" data-name="Path 100" d="M723.3,10546.125,608.678,10612.3v132.351l114.618,66.174,114.618-66.174V10612.3Z" transform="translate(224.397 -8280.13)" fill="#fff" stroke="#31b8ff" stroke-width="8"/>
    <text id="randomizr" transform="translate(833.014 2380.365)" font-size="28" font-family="Roboto-Bold, Roboto" font-weight="700"><tspan x="50.482" y="27">randomizr</tspan></text>
    <path id="Path_100-3" data-name="Path 100" d="M723.3,10546.125,608.678,10612.3v132.351l114.618,66.174,114.618-66.174V10612.3Z" transform="translate(453.413 -8280.27)" fill="#fff" stroke="#31b8ff" stroke-width="8"/>
    <text id="estimatr" transform="translate(1062.031 2380.365)" font-size="28" font-family="Roboto-Bold, Roboto" font-weight="700"><tspan x="61.925" y="27">estimatr</tspan></text>
    <path id="Path_135" data-name="Path 135" d="M723.3,10546.125,608.678,10612.3v132.351l114.618,66.174,114.618-66.174V10612.3Z" transform="translate(223.397 -7883.23)" fill="#fff" stroke="#31b8ff" stroke-width="8"/>
    <text id="DesignLibrary" transform="translate(832.014 2771.264)" font-size="28" font-family="Roboto-Bold, Roboto" font-weight="700"><tspan x="29.496" y="27">Design</tspan><tspan y="27" font-family="Roboto-Light, Roboto" font-weight="300">Library</tspan></text>
    <path id="Path_136" data-name="Path 136" d="M723.3,10546.125,608.678,10612.3v132.351l114.618,66.174,114.618-66.174V10612.3Z" transform="translate(452.413 -7883.369)" fill="#f0f2f4" stroke="#31b8ff" stroke-width="8"/>
    <text id="DesignWizard" transform="translate(1061.031 2771.264)" font-size="28" font-family="Roboto-Bold, Roboto" font-weight="700"><tspan x="28.833" y="27">Design</tspan><tspan y="27" font-family="Roboto-Light, Roboto" font-weight="300">Wizard</tspan></text>
    <path id="Path_100-4" data-name="Path 100" d="M723.3,10546.125,608.678,10612.3v132.351l114.618,66.174,114.618-66.174V10612.3Z" transform="translate(338.397 -8081.625)" fill="#063061" stroke="#31b8ff" stroke-width="8"/>
  </g>
</svg>
